<?xml version="1.0" encoding="UTF-8" standalone="no"?>
<svg
   xmlns:dc="http://purl.org/dc/elements/1.1/"
   xmlns:cc="http://creativecommons.org/ns#"
   xmlns:rdf="http://www.w3.org/1999/02/22-rdf-syntax-ns#"
   xmlns:svg="http://www.w3.org/2000/svg"
   xmlns="http://www.w3.org/2000/svg"
   xmlns:xlink="http://www.w3.org/1999/xlink"
   id="SVGRoot"
   version="1.1"
   viewBox="0 0 237.4207 179.3885"
   height="179.3885"
   width="237.4207">
  <defs
     id="defs10">
    <linearGradient
       id="linearGradient4748">
      <stop
         id="stop4744"
         offset="0"
         style="stop-color:#8bc547;stop-opacity:1;" />
      <stop
         id="stop4746"
         offset="1"
         style="stop-color:#8bc547;stop-opacity:0;" />
    </linearGradient>
    <linearGradient
       id="linearGradient4616">
      <stop
         id="stop4612"
         offset="0"
         style="stop-color:#8bc547;stop-opacity:1;" />
      <stop
         id="stop4614"
         offset="1"
         style="stop-color:#8bc547;stop-opacity:0;" />
    </linearGradient>
    <linearGradient
       id="linearGradient4608">
      <stop
         id="stop4604"
         offset="0"
         style="stop-color:#8bc547;stop-opacity:1;" />
      <stop
         id="stop4606"
         offset="1"
         style="stop-color:#8bc547;stop-opacity:0;" />
    </linearGradient>
    <style
       id="style4556">.cls-1{fill:#8bc547;}.cls-1,.cls-2{fill-rule:evenodd;}.cls-2{fill:#fff;}</style>
    <linearGradient
       gradientTransform="translate(104)"
       gradientUnits="userSpaceOnUse"
       y2="133"
       x2="73.5"
       y1="133"
       x1="24.5"
       id="linearGradient4610"
       xlink:href="#linearGradient4608" />
    <radialGradient
       gradientUnits="userSpaceOnUse"
       gradientTransform="matrix(-2.4666667,5.1555556,-3.0068947,-1.4386436,628.48711,142.53669)"
       r="22.5"
       fy="133.5"
       fx="35.5"
       cy="133.5"
       cx="35.5"
       id="radialGradient4618"
       xlink:href="#linearGradient4616" />
    <linearGradient
       gradientTransform="translate(24.029914,20.72285)"
       y2="133"
       x2="73.5"
       y1="133"
       x1="24.5"
       gradientUnits="userSpaceOnUse"
       id="linearGradient4628"
       xlink:href="#linearGradient4608" />
    <radialGradient
       r="22.5"
       fy="133.5"
       fx="35.5"
       cy="133.5"
       cx="35.5"
       gradientTransform="matrix(-2.4666667,5.1555556,-3.0068947,-1.4386436,548.51703,163.25959)"
       gradientUnits="userSpaceOnUse"
       id="radialGradient4630"
       xlink:href="#linearGradient4616" />
    <linearGradient
       y2="133"
       x2="73.5"
       y1="133"
       x1="24.5"
       gradientTransform="translate(13.80504,-2.0332355)"
       gradientUnits="userSpaceOnUse"
       id="linearGradient4636"
       xlink:href="#linearGradient4608" />
    <radialGradient
       r="22.5"
       fy="133.5"
       fx="35.5"
       cy="133.5"
       cx="35.5"
       gradientTransform="matrix(-2.4666667,5.1555556,-3.0068947,-1.4386436,538.29215,140.5035)"
       gradientUnits="userSpaceOnUse"
       id="radialGradient4638"
       xlink:href="#linearGradient4616" />
    <linearGradient
       gradientTransform="translate(60,-12)"
       y2="133"
       x2="73.5"
       y1="133"
       x1="24.5"
       gradientUnits="userSpaceOnUse"
       id="linearGradient4644"
       xlink:href="#linearGradient4608" />
    <radialGradient
       r="22.5"
       fy="133.5"
       fx="35.5"
       cy="133.5"
       cx="35.5"
       gradientTransform="matrix(-2.4666667,5.1555556,-3.0068947,-1.4386436,584.48711,130.53669)"
       gradientUnits="userSpaceOnUse"
       id="radialGradient4646"
       xlink:href="#linearGradient4616" />
    <radialGradient
       r="22.5"
       fy="133.5"
       fx="35.5"
       cy="133.5"
       cx="35.5"
       gradientTransform="matrix(-2.4666667,5.1555556,-3.0068947,-1.4386436,648.95663,190.23898)"
       gradientUnits="userSpaceOnUse"
       id="radialGradient4660"
       xlink:href="#linearGradient4616" />
    <linearGradient
       gradientUnits="userSpaceOnUse"
       y2="72.996094"
       x2="273.90216"
       y1="72.996094"
       x1="6.1604748"
       id="linearGradient4750"
       xlink:href="#linearGradient4748" />
  </defs>
  <metadata
     id="metadata13">
    <rdf:RDF>
      <cc:Work
         rdf:about="">
        <dc:format>image/svg+xml</dc:format>
        <dc:type
           rdf:resource="http://purl.org/dc/dcmitype/StillImage" />
        <dc:title></dc:title>
      </cc:Work>
    </rdf:RDF>
  </metadata>
  <g
     transform="translate(-10.689,-43.610871)"
     style="display:inline"
     id="layer1" />
  <g
     transform="translate(-10.689,-43.610871)"
     style="display:none"
     id="layer2" />
  <g
     transform="translate(-10.689,-43.610871)"
     id="g4622"
     style="display:none" />
  <g
     transform="translate(-10.689,-43.610871)"
     style="display:inline"
     id="g4634" />
  <g
     transform="translate(-10.689,-43.610871)"
     id="g4642"
     style="display:inline">
    <rect
       id="rect4640"
       width="42"
       height="147"
       x="74.5"
       y="48"
       style="fill:url(#linearGradient4644);fill-opacity:1;stroke:url(#radialGradient4646);stroke-width:3;stroke-linecap:round;stroke-linejoin:round;stroke-miterlimit:4;stroke-dasharray:none;stroke-opacity:1"
       ry="5.5" />
  </g>
  <g
     transform="translate(-10.689,-43.610871)"
     style="display:none"
     id="layer3">
    <g
       transform="translate(37.871246,150.50546)"
       id="Layer_2"
       data-name="Layer 2">
      <g
         id="nav_footer"
         data-name="nav+footer">
        <path
           style="fill:#8bc547;fill-rule:evenodd"
           class="cls-1"
           d="M 89.32,15.9 A 10.72,10.72 0 0 0 86.06,8 11.14,11.14 0 0 0 70.29,8 10.73,10.73 0 0 0 67,15.9 a 10.82,10.82 0 0 0 3.27,7.91 11.15,11.15 0 0 0 19,-7.91 z m 4.78,0 a 15.38,15.38 0 0 1 -4.67,11.28 15.9,15.9 0 0 1 -22.51,0 15.5,15.5 0 0 1 -4.67,-11.28 15.42,15.42 0 0 1 4.67,-11.23 15.9,15.9 0 0 1 22.51,0 15.3,15.3 0 0 1 4.67,11.23 z"
           id="path4562" />
        <path
           style="fill:#ffffff;fill-rule:evenodd"
           class="cls-2"
           d="m 30.9,31 c 0,0.25 -0.14,0.35 -0.38,0.35 h -3.87 c -0.24,0 -0.38,-0.1 -0.38,-0.35 v -8.58 a 4,4 0 0 0 -1.27,-3 4.2,4.2 0 0 0 -6,0 4.11,4.11 0 0 0 -1.23,3 V 31 c 0,0.25 -0.14,0.35 -0.39,0.35 h -3.89 c -0.25,0 -0.36,-0.1 -0.36,-0.35 v -8.58 a 4,4 0 0 0 -1.26,-3 4.09,4.09 0 0 0 -3,-1.26 4.09,4.09 0 0 0 -3,1.26 4.15,4.15 0 0 0 -1.22,3 V 31 c 0,0.25 -0.14,0.35 -0.43,0.35 H 0.35 C 0.11,31.3 0,31.2 0,31 v -8.58 a 9,9 0 0 1 2.39,-6.29 7.6,7.6 0 0 1 5.83,-2.59 7.73,7.73 0 0 1 7,4.1 0.3,0.3 0 0 0 0.24,0.11 c 0.14,0 0.25,0 0.28,-0.11 a 7.72,7.72 0 0 1 7,-4.1 7.58,7.58 0 0 1 5.83,2.59 8.82,8.82 0 0 1 2.39,6.29 V 31 Z"
           id="path4564" />
        <path
           style="fill:#ffffff;fill-rule:evenodd"
           class="cls-2"
           d="m 46.83,44.33 a 0.3,0.3 0 0 1 -0.35,0.35 h -3.86 a 8.85,8.85 0 0 1 -6.26,-2.41 8.08,8.08 0 0 1 1.49,-12.93 0.33,0.33 0 0 0 0.11,-0.25 c 0,-0.14 0,-0.25 -0.11,-0.28 a 7.82,7.82 0 0 1 -4.07,-7 7.76,7.76 0 0 1 2.58,-5.88 8.68,8.68 0 0 1 6.26,-2.41 h 3.86 c 0.24,0 0.35,0.11 0.35,0.39 v 3.9 c 0,0.24 -0.11,0.38 -0.35,0.38 h -3.86 a 4,4 0 0 0 -3,1.28 4.25,4.25 0 0 0 0,6 4,4 0 0 0 3,1.28 h 3.86 c 0.24,0 0.35,0.14 0.35,0.38 V 31 c 0,0.25 -0.11,0.39 -0.35,0.39 h -3.86 a 4,4 0 0 0 -3,1.28 4.27,4.27 0 0 0 3,7.29 h 3.86 c 0.24,0 0.35,0.14 0.35,0.43 v 3.9 z"
           id="path4566" />
        <path
           style="fill:#ffffff;fill-rule:evenodd"
           class="cls-2"
           d="m 63.4,31.09 c 0,0.24 -0.1,0.35 -0.34,0.35 H 50.68 c -0.25,0 -0.35,-0.11 -0.35,-0.35 V 13.84 c 0,-0.28 0.1,-0.38 0.35,-0.38 h 3.82 c 0.28,0 0.42,0.1 0.42,0.38 V 26.5 c 0,0.21 0.11,0.35 0.31,0.35 h 7.83 c 0.24,0 0.34,0.14 0.34,0.41 z"
           id="path4568" />
        <path
           style="fill:#ffffff;fill-rule:evenodd"
           class="cls-2"
           d="m 101.77,19.43 a 4,4 0 0 0 -1.23,3 V 31 c 0,0.25 -0.14,0.35 -0.42,0.35 h -3.87 c -0.24,0 -0.35,-0.1 -0.35,-0.35 v -8.58 a 8.87,8.87 0 0 1 2.39,-6.29 7.75,7.75 0 0 1 11.59,0 8.87,8.87 0 0 1 2.39,6.29 V 31 c 0,0.25 -0.11,0.35 -0.35,0.35 h -3.87 c -0.28,0 -0.42,-0.1 -0.42,-0.35 v -8.58 a 4,4 0 0 0 -1.23,-3 2.94,2.94 0 0 0 -4.63,0 z"
           id="path4570" />
      </g>
    </g>
  </g>
  <g
     transform="translate(-10.689,-43.610871)"
     style="display:inline"
     id="g4742">
    <g
       data-name="Layer 2"
       id="g4740"
       transform="translate(35.871246,140.50546)">
      <g
         data-name="nav+footer"
         id="g4738">
        <path
           id="path4736"
           d="m -10.483048,70.573921 c -0.815084,0.781549 -1.261845,1.87121 -1.23,3 v 8.57 c 0,0.25 -0.14,0.35 -0.42,0.35 h -7.87 c -0.24,0 -0.35,-0.1 -0.35,-0.35 v -10.58 c -0.06038,-2.329192 2.798125,-6.588614 4.39,-8.29 3.083208,-3.472109 216.506788,-3.472109 219.589998,0 1.59188,1.701386 4.45038,5.960809 4.39,8.29 v 10.58 c 0,0.25 -0.11,0.35 -0.35,0.35 h -7.87 c -0.28,0 -0.42,-0.1 -0.42,-0.35 v -8.58 c 0.0319,-1.12879 -0.41491,-2.218451 -1.23,-3 -1.1771,-1.503621 -207.452897,-1.503621 -208.629998,0 z"
           class="cls-2"
           style="fill:url(#linearGradient4750);fill-opacity:1;fill-rule:evenodd" />
      </g>
    </g>
  </g>
  <g
     transform="translate(-10.689,-43.610871)"
     style="display:inline"
     id="g4724">
    <g
       transform="translate(7.0003537,-12)"
       id="g4775">
      <rect
         ry="5.5"
         style="display:inline;fill:none;fill-opacity:0;stroke:url(#radialGradient4660);stroke-width:3;stroke-linecap:round;stroke-linejoin:round;stroke-miterlimit:4;stroke-dasharray:none;stroke-opacity:1"
         y="107.70222"
         x="138.96951"
         height="147"
         width="42"
         id="rect4620"
         transform="rotate(-15.035487)" />
      <g
         transform="translate(113.87125,78.50546)"
         id="g4722"
         data-name="Layer 2">
        <g
           id="g4720"
           data-name="nav+footer">
          <path
             style="fill:#8bc547;fill-rule:evenodd"
             class="cls-1"
             d="M 89.32,15.9 A 10.72,10.72 0 0 0 86.06,8 11.14,11.14 0 0 0 70.29,8 10.73,10.73 0 0 0 67,15.9 a 10.82,10.82 0 0 0 3.27,7.91 11.15,11.15 0 0 0 19,-7.91 z m 4.78,0 a 15.38,15.38 0 0 1 -4.67,11.28 15.9,15.9 0 0 1 -22.51,0 15.5,15.5 0 0 1 -4.67,-11.28 15.42,15.42 0 0 1 4.67,-11.23 15.9,15.9 0 0 1 22.51,0 15.3,15.3 0 0 1 4.67,11.23 z"
             id="path4710" />
        </g>
      </g>
    </g>
  </g>
  <g
     transform="translate(-10.689,-43.610871)"
     style="display:inline"
     id="g4708">
    <g
       transform="translate(6,-12)"
       id="g4768">
      <rect
         id="rect24"
         width="42"
         height="147"
         x="118.5"
         y="60"
         style="display:inline;fill:url(#linearGradient4610);fill-opacity:1;stroke:url(#radialGradient4618);stroke-width:3;stroke-linecap:round;stroke-linejoin:round;stroke-miterlimit:4;stroke-dasharray:none;stroke-opacity:1"
         ry="5.5" />
      <g
         transform="translate(83.871246,62.50546)"
         id="g4706"
         data-name="Layer 2">
        <g
           id="g4704"
           data-name="nav+footer">
          <path
             style="fill:#ffffff;fill-rule:evenodd"
             class="cls-2"
             d="m 63.4,47.09 c 0,0.24 -0.1,0.35 -0.34,0.35 H 50.68 c -0.25,0 -0.35,-0.11 -0.35,-0.35 V 29.84 c 0,-0.28 0.1,-0.38 0.35,-0.38 h 3.82 c 0.28,0 0.42,0.1 0.42,0.38 V 42.5 c 0,0.21 0.11,0.35 0.31,0.35 h 7.83 c 0.24,0 0.34,0.14 0.34,0.41 z"
             id="path4700" />
        </g>
      </g>
    </g>
  </g>
  <g
     transform="translate(-10.689,-43.610871)"
     style="display:inline"
     id="g4692">
    <g
       data-name="Layer 2"
       id="g4690"
       transform="translate(53.871246,50.50546)">
      <g
         data-name="nav+footer"
         id="g4688">
        <path
           id="path4682"
           d="m 46.83,60.33 a 0.3,0.3 0 0 1 -0.35,0.35 h -3.86 a 8.85,8.85 0 0 1 -6.26,-2.41 8.08,8.08 0 0 1 1.49,-12.93 0.33,0.33 0 0 0 0.11,-0.25 c 0,-0.14 0,-0.25 -0.11,-0.28 a 7.82,7.82 0 0 1 -4.07,-7 7.76,7.76 0 0 1 2.58,-5.88 8.68,8.68 0 0 1 6.26,-2.41 h 3.86 c 0.24,0 0.35,0.11 0.35,0.39 v 3.9 c 0,0.24 -0.11,0.38 -0.35,0.38 h -3.86 a 4,4 0 0 0 -3,1.28 4.25,4.25 0 0 0 0,6 4,4 0 0 0 3,1.28 h 3.86 c 0.24,0 0.35,0.14 0.35,0.38 V 47 c 0,0.25 -0.11,0.39 -0.35,0.39 h -3.86 a 4,4 0 0 0 -3,1.28 4.27,4.27 0 0 0 3,7.29 h 3.86 c 0.24,0 0.35,0.14 0.35,0.43 v 3.9 z"
           class="cls-2"
           style="fill:#ffffff;fill-rule:evenodd" />
      </g>
    </g>
  </g>
  <g
     transform="translate(-10.689,-43.610871)"
     style="display:inline"
     id="g4676">
    <g
       transform="rotate(4.4330363,216.97368,98.267588)"
       id="g4760">
      <rect
         transform="rotate(2.5101365)"
         id="rect4632"
         width="42"
         height="147"
         x="28.304991"
         y="57.966724"
         style="display:inline;fill:url(#linearGradient4636);fill-opacity:1;stroke:url(#radialGradient4638);stroke-width:3;stroke-linecap:round;stroke-linejoin:round;stroke-miterlimit:4;stroke-dasharray:none;stroke-opacity:1"
         ry="5.5" />
      <g
         transform="rotate(3.613815,-1200.8842,524.88294)"
         id="g4674"
         data-name="Layer 2">
        <g
           id="g4672"
           data-name="nav+footer">
          <path
             style="fill:#ffffff;fill-rule:evenodd"
             class="cls-2"
             d="m 30.9,31 c 0,0.25 -0.14,0.35 -0.38,0.35 h -3.87 c -0.24,0 -0.38,-0.1 -0.38,-0.35 v -8.58 a 4,4 0 0 0 -1.27,-3 4.2,4.2 0 0 0 -6,0 4.11,4.11 0 0 0 -1.23,3 V 31 c 0,0.25 -0.14,0.35 -0.39,0.35 h -3.89 c -0.25,0 -0.36,-0.1 -0.36,-0.35 v -8.58 a 4,4 0 0 0 -1.26,-3 4.09,4.09 0 0 0 -3,-1.26 4.09,4.09 0 0 0 -3,1.26 4.15,4.15 0 0 0 -1.22,3 V 31 c 0,0.25 -0.14,0.35 -0.43,0.35 H 0.35 C 0.11,31.3 0,31.2 0,31 v -8.58 a 9,9 0 0 1 2.39,-6.29 7.6,7.6 0 0 1 5.83,-2.59 7.73,7.73 0 0 1 7,4.1 0.3,0.3 0 0 0 0.24,0.11 c 0.14,0 0.25,0 0.28,-0.11 a 7.72,7.72 0 0 1 7,-4.1 7.58,7.58 0 0 1 5.83,2.59 8.82,8.82 0 0 1 2.39,6.29 V 31 Z"
             id="path4664" />
        </g>
      </g>
    </g>
  </g>
</svg>
